<?xml version="1.0" encoding="UTF-8" standalone="no"?>
<!-- Created with Inkscape (http://www.inkscape.org/) -->

<svg
   width="260mm"
   height="260mm"
   viewBox="0 0 921.25991 921.25985"
   id="svg2"
   version="1.1"
   inkscape:version="1.3 (1:1.3+202307231459+0e150ed6c4)"
   sodipodi:docname="favicon.svg"
   xmlns:inkscape="http://www.inkscape.org/namespaces/inkscape"
   xmlns:sodipodi="http://sodipodi.sourceforge.net/DTD/sodipodi-0.dtd"
   xmlns="http://www.w3.org/2000/svg"
   xmlns:svg="http://www.w3.org/2000/svg"
   xmlns:rdf="http://www.w3.org/1999/02/22-rdf-syntax-ns#"
   xmlns:cc="http://creativecommons.org/ns#"
   xmlns:dc="http://purl.org/dc/elements/1.1/">
  <defs
     id="defs4" />
  <sodipodi:namedview
     id="base"
     pagecolor="#ffffff"
     bordercolor="#666666"
     borderopacity="1.0"
     inkscape:pageopacity="0.0"
     inkscape:pageshadow="2"
     inkscape:zoom="0.49497475"
     inkscape:cx="-103.03556"
     inkscape:cy="244.45692"
     inkscape:document-units="px"
     inkscape:current-layer="layer4"
     showgrid="false"
     inkscape:window-width="2016"
     inkscape:window-height="1290"
     inkscape:window-x="26"
     inkscape:window-y="23"
     inkscape:window-maximized="0"
     inkscape:showpageshadow="2"
     inkscape:pagecheckerboard="0"
     inkscape:deskcolor="#d1d1d1" />
  <metadata
     id="metadata7">
    <rdf:RDF>
      <cc:Work
         rdf:about="">
        <dc:format>image/svg+xml</dc:format>
        <dc:type
           rdf:resource="http://purl.org/dc/dcmitype/StillImage" />
      </cc:Work>
    </rdf:RDF>
  </metadata>
  <g
     inkscape:groupmode="layer"
     id="layer4"
     inkscape:label="Layer 4"
     style="display:inline"
     transform="translate(-243.23794,-231.61576)">
    <path
       style="color:#000000;clip-rule:nonzero;display:inline;overflow:visible;visibility:visible;opacity:0.999;isolation:auto;mix-blend-mode:normal;color-interpolation:sRGB;color-interpolation-filters:linearRGB;solid-color:#000000;solid-opacity:1;fill:#000000;fill-opacity:1;fill-rule:evenodd;stroke:none;stroke-width:1.44515;stroke-linecap:butt;stroke-linejoin:round;stroke-miterlimit:4;stroke-dasharray:none;stroke-dashoffset:0;stroke-opacity:1;color-rendering:auto;image-rendering:auto;shape-rendering:auto;text-rendering:auto;enable-background:accumulate"
       d="M 544.52153,571.18748 C 301.76118,464.6201 297.2902,787.41242 405.13501,828.80364 539.23475,880.27159 684.49839,736.06518 650.30596,594.83339 629.62077,509.39324 482.87716,398.64579 532.70947,329.98878 c 60.05573,-82.74242 315.87409,-36.72621 370.79916,7.43268 71.95177,57.84809 80.35459,152.42347 30.54842,251.18936 -83.69239,165.96239 -257.47323,186.09646 -277.52851,343.48821 -11.29131,88.61307 94.96747,191.91527 225.25857,189.16747 230.24079,-4.8557 291.32079,-350.41056 -58.49256,-278.7731 139.38651,6.22262 161.62514,91.93062 150.58721,161.7879 -9.30092,58.8641 -89.80558,109.2764 -154.32079,83.383 C 753.09256,1060.9871 729.2956,977.21663 761.06843,902.23049 836.6655,723.81603 1043.5698,697.88858 1057.2648,518.91756 1081.4047,203.44885 533.90043,250.25362 443.7152,296.14801 367.43751,334.96499 525.50761,494.87909 560.70033,562.47581 662.59573,758.19226 458.4862,876.27315 417.58024,775.28917 387.0323,699.87587 425.04737,572.43199 544.52153,571.18748 Z"
       id="path4165"
       inkscape:connector-curvature="0"
       sodipodi:nodetypes="cssssssscsssssssc" />
  </g>
</svg>
