<?xml version="1.0" standalone="no"?>
<!DOCTYPE svg PUBLIC "-//W3C//DTD SVG 20010904//EN"
 "http://www.w3.org/TR/2001/REC-SVG-20010904/DTD/svg10.dtd">
<svg version="1.0" xmlns="http://www.w3.org/2000/svg"
 width="700.000000pt" height="700.000000pt" viewBox="0 0 700.000000 700.000000"
 preserveAspectRatio="xMidYMid meet">
<metadata>
Created by potrace 1.14, written by Peter Selinger 2001-2017
</metadata>
<g transform="translate(0.000000,700.000000) scale(0.100000,-0.100000)"
fill="#000000" stroke="none">
<path d="M2918 6755 c-2 -1 -56 -6 -121 -9 -65 -4 -140 -9 -165 -11 -26 -3
-69 -7 -97 -9 -78 -7 -237 -26 -260 -31 -11 -2 -40 -7 -65 -10 -25 -3 -52 -7
-60 -9 -8 -1 -37 -6 -65 -10 -91 -15 -340 -74 -416 -99 -128 -44 -185 -75
-232 -127 -148 -165 -61 -457 291 -975 76 -112 337 -474 375 -520 99 -122 275
-392 337 -520 225 -465 245 -916 57 -1290 -96 -191 -257 -361 -430 -454 -162
-87 -348 -113 -479 -67 -79 28 -118 54 -175 115 -183 197 -217 700 -71 1043
167 390 455 604 868 644 36 3 66 7 67 8 5 4 -174 70 -251 93 -162 47 -267 64
-406 63 -120 0 -167 -6 -254 -31 -228 -67 -386 -199 -505 -421 -65 -122 -108
-267 -136 -463 -11 -80 -6 -319 9 -402 2 -10 7 -38 11 -63 11 -70 51 -208 84
-289 73 -179 213 -353 336 -417 226 -118 557 -143 840 -64 292 82 574 275 786
540 147 184 276 460 315 678 2 12 7 34 10 50 3 15 8 99 10 187 7 321 -54 508
-269 833 -76 114 -363 515 -413 575 -7 9 -14 20 -14 23 0 2 -18 29 -40 59 -22
30 -40 56 -40 59 0 3 -13 24 -29 48 -50 75 -121 213 -150 294 -102 280 -40
476 197 628 107 68 294 135 447 160 184 30 257 34 530 31 149 -2 279 -6 290
-8 11 -3 52 -8 90 -12 114 -11 327 -43 405 -61 14 -3 39 -8 55 -10 54 -10 258
-63 355 -92 368 -114 551 -234 722 -477 158 -223 231 -479 223 -780 -2 -77 -6
-149 -8 -160 -3 -11 -8 -40 -12 -65 -14 -84 -16 -95 -35 -170 -17 -64 -45
-149 -101 -300 -20 -55 -117 -247 -167 -330 -83 -139 -194 -292 -291 -405
-124 -143 -447 -442 -626 -580 -21 -16 -46 -37 -55 -45 -8 -8 -40 -34 -70 -57
-30 -23 -64 -50 -75 -60 -11 -10 -40 -34 -65 -53 -25 -19 -47 -37 -50 -40 -3
-3 -32 -27 -65 -55 -107 -89 -128 -108 -242 -223 -258 -259 -400 -511 -463
-822 -49 -239 -24 -421 86 -645 227 -463 769 -822 1346 -892 122 -15 467 -7
521 12 7 3 24 7 40 10 15 3 39 7 55 11 123 24 371 134 491 217 102 70 213 171
292 267 49 59 129 174 129 186 0 4 6 15 13 23 45 54 127 297 141 417 8 60 8
197 2 244 -47 325 -260 572 -601 698 -99 37 -224 65 -334 77 -31 4 -67 8 -81
11 -32 5 -343 5 -390 0 -19 -3 -66 -7 -105 -11 -38 -3 -77 -8 -85 -10 -8 -2
-33 -6 -55 -9 -94 -13 -175 -30 -175 -36 0 -3 19 -7 43 -8 322 -17 633 -135
812 -308 127 -123 224 -314 251 -494 10 -66 11 -317 2 -380 -51 -349 -359
-641 -754 -713 -73 -14 -219 -15 -288 -2 -65 11 -176 55 -248 96 -62 36 -167
122 -196 161 -7 9 -18 23 -25 30 -72 73 -175 294 -193 413 -3 22 -10 58 -15
80 -9 42 -5 306 6 365 4 19 11 53 16 75 5 22 12 50 14 62 28 126 177 425 300
601 111 159 363 436 530 583 66 58 333 279 440 364 55 44 102 82 105 85 3 3
59 50 125 105 152 126 371 344 457 455 197 255 305 505 345 800 10 67 9 396 0
465 -42 302 -169 568 -378 789 -270 285 -649 484 -1179 620 -138 35 -191 46
-340 72 -19 3 -44 8 -55 10 -62 11 -158 24 -210 29 -33 4 -71 8 -85 10 -14 2
-65 7 -115 10 -49 4 -106 9 -125 12 -39 5 -767 13 -772 8z"/>
</g>
</svg>
